<svg xmlns="http://www.w3.org/2000/svg" width="1800" height="1200" viewBox="0 0 1800 1200"><rect x="0" y="0" width="1800" height="1200" fill="#eef3ff"/><rect x="0" y="0" width="1800" height="140" fill="#2f6fed"/><text x="60" y="90" font-family="'Noto Sans KR', sans-serif" font-size="52" font-weight="800" fill="#fff">고등어 위판 현황판</text><text x="60" y="130" font-family="'Noto Sans KR', sans-serif" font-size="22" fill="#ffffffcc">가상 위판 현황판 예시 (실제 통계 아님)</text><g font-family="'Noto Sans KR', sans-serif" font-size="24" font-weight="700" fill="#22303a"><text x="80" y="210">순번</text><text x="280" y="210">위판시각(가상)</text><text x="720" y="210">중량(kg)</text><text x="1000" y="210">낙찰가(원/kg, 가상)</text></g><line x1="60" y1="230" x2="1740" y2="230" stroke="#2f6fed" stroke-width="3"/><g font-family="'Noto Sans KR', sans-serif" font-size="21" fill="#3a4650"><text x="80" y="280">1</text><text x="280" y="280">05:12</text><text x="720" y="280">320</text><text x="1000" y="280">4,200</text></g><rect x="60" y="248" width="1680" height="46" fill="#2f6fed" fill-opacity="0.06"/><g font-family="'Noto Sans KR', sans-serif" font-size="21" fill="#3a4650"><text x="80" y="334">2</text><text x="280" y="334">05:18</text><text x="720" y="334">285</text><text x="1000" y="334">4,350</text></g><g font-family="'Noto Sans KR', sans-serif" font-size="21" fill="#3a4650"><text x="80" y="388">3</text><text x="280" y="388">05:26</text><text x="720" y="388">410</text><text x="1000" y="388">4,100</text></g><rect x="60" y="356" width="1680" height="46" fill="#2f6fed" fill-opacity="0.06"/><g font-family="'Noto Sans KR', sans-serif" font-size="21" fill="#3a4650"><text x="80" y="442">4</text><text x="280" y="442">05:33</text><text x="720" y="442">198</text><text x="1000" y="442">4,500</text></g><g font-family="'Noto Sans KR', sans-serif" font-size="21" fill="#3a4650"><text x="80" y="496">5</text><text x="280" y="496">05:41</text><text x="720" y="496">356</text><text x="1000" y="496">4,250</text></g><rect x="60" y="464" width="1680" height="46" fill="#2f6fed" fill-opacity="0.06"/><text x="80" y="1004" font-family="'Noto Sans KR', sans-serif" font-size="20" font-weight="700" fill="#22303a">중량 분포(가상)</text><rect x="80" y="1046.341463414634" width="318" height="93.65853658536585" fill="#2f6fed" fill-opacity="0.7" rx="3"/><rect x="408" y="1056.5853658536585" width="318" height="83.41463414634146" fill="#2f6fed" fill-opacity="0.7" rx="3"/><rect x="736" y="1020" width="318" height="120" fill="#2f6fed" fill-opacity="0.7" rx="3"/><rect x="1064" y="1082.0487804878048" width="318" height="57.951219512195124" fill="#2f6fed" fill-opacity="0.7" rx="3"/><rect x="1392" y="1035.8048780487804" width="318" height="104.1951219512195" fill="#2f6fed" fill-opacity="0.7" rx="3"/><text x="900" y="1180" text-anchor="middle" font-family="'Noto Sans KR', sans-serif" font-size="16" fill="#8a939b">※ 가상의 예시 데이터이며 실제 위판 실적이 아닙니다.</text></svg>